<mxfile host="app.diagrams.net" modified="2024-04-09T16:46:19.969Z" agent="Mozilla/5.0 (Windows NT 10.0; Win64; x64) AppleWebKit/537.36 (KHTML, like Gecko) Chrome/123.0.0.0 Safari/537.36" etag="oCNSnnaL36y7t5yhLJYX" version="23.1.6" type="github">
  <diagram name="Page-1" id="L1qLL6f-FjG3s0UHHl-l">
    <mxGraphModel dx="1176" dy="474" grid="1" gridSize="10" guides="1" tooltips="1" connect="1" arrows="1" fold="1" page="1" pageScale="1" pageWidth="850" pageHeight="1100" math="0" shadow="0">
      <root>
        <mxCell id="0" />
        <mxCell id="1" parent="0" />
        <mxCell id="DjLfRaHo2GxReYmV7saF-77" value="" style="group" vertex="1" connectable="0" parent="1">
          <mxGeometry x="30" y="20" width="280" height="150" as="geometry" />
        </mxCell>
        <mxCell id="DjLfRaHo2GxReYmV7saF-43" value="User" style="rounded=0;whiteSpace=wrap;html=1;" vertex="1" parent="DjLfRaHo2GxReYmV7saF-77">
          <mxGeometry x="55" y="90" width="120" height="60" as="geometry" />
        </mxCell>
        <mxCell id="DjLfRaHo2GxReYmV7saF-44" value="&lt;u&gt;UserID&lt;/u&gt;" style="ellipse;whiteSpace=wrap;html=1;" vertex="1" parent="DjLfRaHo2GxReYmV7saF-77">
          <mxGeometry x="80" width="70" height="40" as="geometry" />
        </mxCell>
        <mxCell id="DjLfRaHo2GxReYmV7saF-46" value="Name" style="ellipse;whiteSpace=wrap;html=1;" vertex="1" parent="DjLfRaHo2GxReYmV7saF-77">
          <mxGeometry x="160" y="20" width="70" height="40" as="geometry" />
        </mxCell>
        <mxCell id="DjLfRaHo2GxReYmV7saF-47" value="Email" style="ellipse;whiteSpace=wrap;html=1;" vertex="1" parent="DjLfRaHo2GxReYmV7saF-77">
          <mxGeometry x="210" y="60" width="70" height="40" as="geometry" />
        </mxCell>
        <mxCell id="DjLfRaHo2GxReYmV7saF-48" value="Designation" style="ellipse;whiteSpace=wrap;html=1;" vertex="1" parent="DjLfRaHo2GxReYmV7saF-77">
          <mxGeometry y="20" width="70" height="40" as="geometry" />
        </mxCell>
        <mxCell id="DjLfRaHo2GxReYmV7saF-55" value="" style="endArrow=none;html=1;rounded=0;entryX=0.5;entryY=1;entryDx=0;entryDy=0;" edge="1" parent="DjLfRaHo2GxReYmV7saF-77" source="DjLfRaHo2GxReYmV7saF-43" target="DjLfRaHo2GxReYmV7saF-48">
          <mxGeometry width="50" height="50" relative="1" as="geometry">
            <mxPoint x="400" y="180" as="sourcePoint" />
            <mxPoint x="50" y="60" as="targetPoint" />
          </mxGeometry>
        </mxCell>
        <mxCell id="DjLfRaHo2GxReYmV7saF-56" value="" style="endArrow=none;html=1;rounded=0;entryX=0.5;entryY=1;entryDx=0;entryDy=0;" edge="1" parent="DjLfRaHo2GxReYmV7saF-77" source="DjLfRaHo2GxReYmV7saF-43" target="DjLfRaHo2GxReYmV7saF-44">
          <mxGeometry width="50" height="50" relative="1" as="geometry">
            <mxPoint x="85" y="100" as="sourcePoint" />
            <mxPoint x="45" y="70" as="targetPoint" />
          </mxGeometry>
        </mxCell>
        <mxCell id="DjLfRaHo2GxReYmV7saF-57" value="" style="endArrow=none;html=1;rounded=0;entryX=0;entryY=1;entryDx=0;entryDy=0;exitX=0.75;exitY=0;exitDx=0;exitDy=0;" edge="1" parent="DjLfRaHo2GxReYmV7saF-77" source="DjLfRaHo2GxReYmV7saF-43" target="DjLfRaHo2GxReYmV7saF-46">
          <mxGeometry width="50" height="50" relative="1" as="geometry">
            <mxPoint x="125" y="100" as="sourcePoint" />
            <mxPoint x="125" y="50" as="targetPoint" />
          </mxGeometry>
        </mxCell>
        <mxCell id="DjLfRaHo2GxReYmV7saF-58" value="" style="endArrow=none;html=1;rounded=0;entryX=0;entryY=0.5;entryDx=0;entryDy=0;exitX=1;exitY=0.25;exitDx=0;exitDy=0;" edge="1" parent="DjLfRaHo2GxReYmV7saF-77" source="DjLfRaHo2GxReYmV7saF-43" target="DjLfRaHo2GxReYmV7saF-47">
          <mxGeometry width="50" height="50" relative="1" as="geometry">
            <mxPoint x="135" y="110" as="sourcePoint" />
            <mxPoint x="135" y="60" as="targetPoint" />
          </mxGeometry>
        </mxCell>
        <mxCell id="DjLfRaHo2GxReYmV7saF-79" value="User Record" style="rounded=0;whiteSpace=wrap;html=1;" vertex="1" parent="1">
          <mxGeometry x="535" y="110" width="120" height="60" as="geometry" />
        </mxCell>
        <mxCell id="DjLfRaHo2GxReYmV7saF-80" value="UserID" style="ellipse;whiteSpace=wrap;html=1;" vertex="1" parent="1">
          <mxGeometry x="560" y="20" width="70" height="40" as="geometry" />
        </mxCell>
        <mxCell id="DjLfRaHo2GxReYmV7saF-81" value="uservalue" style="ellipse;whiteSpace=wrap;html=1;" vertex="1" parent="1">
          <mxGeometry x="640" y="40" width="70" height="40" as="geometry" />
        </mxCell>
        <mxCell id="DjLfRaHo2GxReYmV7saF-83" value="&lt;u&gt;recordid&lt;/u&gt;" style="ellipse;whiteSpace=wrap;html=1;" vertex="1" parent="1">
          <mxGeometry x="480" y="40" width="70" height="40" as="geometry" />
        </mxCell>
        <mxCell id="DjLfRaHo2GxReYmV7saF-84" value="" style="endArrow=none;html=1;rounded=0;entryX=0.5;entryY=1;entryDx=0;entryDy=0;" edge="1" parent="1" source="DjLfRaHo2GxReYmV7saF-79" target="DjLfRaHo2GxReYmV7saF-83">
          <mxGeometry width="50" height="50" relative="1" as="geometry">
            <mxPoint x="880" y="200" as="sourcePoint" />
            <mxPoint x="530" y="80" as="targetPoint" />
          </mxGeometry>
        </mxCell>
        <mxCell id="DjLfRaHo2GxReYmV7saF-85" value="" style="endArrow=none;html=1;rounded=0;entryX=0.5;entryY=1;entryDx=0;entryDy=0;" edge="1" parent="1" source="DjLfRaHo2GxReYmV7saF-79" target="DjLfRaHo2GxReYmV7saF-80">
          <mxGeometry width="50" height="50" relative="1" as="geometry">
            <mxPoint x="565" y="120" as="sourcePoint" />
            <mxPoint x="525" y="90" as="targetPoint" />
          </mxGeometry>
        </mxCell>
        <mxCell id="DjLfRaHo2GxReYmV7saF-86" value="" style="endArrow=none;html=1;rounded=0;entryX=0;entryY=1;entryDx=0;entryDy=0;exitX=0.75;exitY=0;exitDx=0;exitDy=0;" edge="1" parent="1" source="DjLfRaHo2GxReYmV7saF-79" target="DjLfRaHo2GxReYmV7saF-81">
          <mxGeometry width="50" height="50" relative="1" as="geometry">
            <mxPoint x="605" y="120" as="sourcePoint" />
            <mxPoint x="605" y="70" as="targetPoint" />
          </mxGeometry>
        </mxCell>
        <mxCell id="DjLfRaHo2GxReYmV7saF-89" value="" style="edgeStyle=orthogonalEdgeStyle;rounded=0;orthogonalLoop=1;jettySize=auto;html=1;" edge="1" parent="1" source="DjLfRaHo2GxReYmV7saF-88" target="DjLfRaHo2GxReYmV7saF-79">
          <mxGeometry relative="1" as="geometry" />
        </mxCell>
        <mxCell id="DjLfRaHo2GxReYmV7saF-91" value="" style="edgeStyle=orthogonalEdgeStyle;rounded=0;orthogonalLoop=1;jettySize=auto;html=1;" edge="1" parent="1" source="DjLfRaHo2GxReYmV7saF-88" target="DjLfRaHo2GxReYmV7saF-43">
          <mxGeometry relative="1" as="geometry" />
        </mxCell>
        <mxCell id="DjLfRaHo2GxReYmV7saF-88" value="Has" style="rhombus;whiteSpace=wrap;html=1;" vertex="1" parent="1">
          <mxGeometry x="350" y="100" width="80" height="80" as="geometry" />
        </mxCell>
        <mxCell id="DjLfRaHo2GxReYmV7saF-92" value="answerid" style="ellipse;whiteSpace=wrap;html=1;" vertex="1" parent="1">
          <mxGeometry x="690" y="80" width="70" height="40" as="geometry" />
        </mxCell>
        <mxCell id="DjLfRaHo2GxReYmV7saF-93" value="" style="endArrow=none;html=1;rounded=0;entryX=0;entryY=0.5;entryDx=0;entryDy=0;exitX=1;exitY=0.25;exitDx=0;exitDy=0;" edge="1" parent="1" source="DjLfRaHo2GxReYmV7saF-79" target="DjLfRaHo2GxReYmV7saF-92">
          <mxGeometry width="50" height="50" relative="1" as="geometry">
            <mxPoint x="635" y="120" as="sourcePoint" />
            <mxPoint x="660" y="84" as="targetPoint" />
          </mxGeometry>
        </mxCell>
        <mxCell id="DjLfRaHo2GxReYmV7saF-94" value="" style="group" vertex="1" connectable="0" parent="1">
          <mxGeometry x="30" y="220" width="280" height="150" as="geometry" />
        </mxCell>
        <mxCell id="DjLfRaHo2GxReYmV7saF-95" value="Question" style="rounded=0;whiteSpace=wrap;html=1;" vertex="1" parent="DjLfRaHo2GxReYmV7saF-94">
          <mxGeometry x="55" y="90" width="120" height="60" as="geometry" />
        </mxCell>
        <mxCell id="DjLfRaHo2GxReYmV7saF-96" value="&lt;u&gt;QueId&lt;/u&gt;" style="ellipse;whiteSpace=wrap;html=1;" vertex="1" parent="DjLfRaHo2GxReYmV7saF-94">
          <mxGeometry x="80" width="70" height="40" as="geometry" />
        </mxCell>
        <mxCell id="DjLfRaHo2GxReYmV7saF-97" value="Question" style="ellipse;whiteSpace=wrap;html=1;" vertex="1" parent="DjLfRaHo2GxReYmV7saF-94">
          <mxGeometry x="160" y="20" width="70" height="40" as="geometry" />
        </mxCell>
        <mxCell id="DjLfRaHo2GxReYmV7saF-99" value="level" style="ellipse;whiteSpace=wrap;html=1;" vertex="1" parent="DjLfRaHo2GxReYmV7saF-94">
          <mxGeometry y="20" width="70" height="40" as="geometry" />
        </mxCell>
        <mxCell id="DjLfRaHo2GxReYmV7saF-100" value="" style="endArrow=none;html=1;rounded=0;entryX=0.5;entryY=1;entryDx=0;entryDy=0;" edge="1" parent="DjLfRaHo2GxReYmV7saF-94" source="DjLfRaHo2GxReYmV7saF-95" target="DjLfRaHo2GxReYmV7saF-99">
          <mxGeometry width="50" height="50" relative="1" as="geometry">
            <mxPoint x="400" y="180" as="sourcePoint" />
            <mxPoint x="50" y="60" as="targetPoint" />
          </mxGeometry>
        </mxCell>
        <mxCell id="DjLfRaHo2GxReYmV7saF-101" value="" style="endArrow=none;html=1;rounded=0;entryX=0.5;entryY=1;entryDx=0;entryDy=0;" edge="1" parent="DjLfRaHo2GxReYmV7saF-94" source="DjLfRaHo2GxReYmV7saF-95" target="DjLfRaHo2GxReYmV7saF-96">
          <mxGeometry width="50" height="50" relative="1" as="geometry">
            <mxPoint x="85" y="100" as="sourcePoint" />
            <mxPoint x="45" y="70" as="targetPoint" />
          </mxGeometry>
        </mxCell>
        <mxCell id="DjLfRaHo2GxReYmV7saF-102" value="" style="endArrow=none;html=1;rounded=0;entryX=0;entryY=1;entryDx=0;entryDy=0;exitX=0.75;exitY=0;exitDx=0;exitDy=0;" edge="1" parent="DjLfRaHo2GxReYmV7saF-94" source="DjLfRaHo2GxReYmV7saF-95" target="DjLfRaHo2GxReYmV7saF-97">
          <mxGeometry width="50" height="50" relative="1" as="geometry">
            <mxPoint x="125" y="100" as="sourcePoint" />
            <mxPoint x="125" y="50" as="targetPoint" />
          </mxGeometry>
        </mxCell>
        <mxCell id="DjLfRaHo2GxReYmV7saF-124" value="" style="group" vertex="1" connectable="0" parent="1">
          <mxGeometry x="490" y="280" width="280" height="220" as="geometry" />
        </mxCell>
        <mxCell id="DjLfRaHo2GxReYmV7saF-106" value="Answer" style="rounded=0;whiteSpace=wrap;html=1;" vertex="1" parent="DjLfRaHo2GxReYmV7saF-124">
          <mxGeometry x="55" y="90" width="120" height="60" as="geometry" />
        </mxCell>
        <mxCell id="DjLfRaHo2GxReYmV7saF-107" value="&lt;u&gt;AnsId&lt;/u&gt;" style="ellipse;whiteSpace=wrap;html=1;" vertex="1" parent="DjLfRaHo2GxReYmV7saF-124">
          <mxGeometry x="80" width="70" height="40" as="geometry" />
        </mxCell>
        <mxCell id="DjLfRaHo2GxReYmV7saF-108" value="option1" style="ellipse;whiteSpace=wrap;html=1;" vertex="1" parent="DjLfRaHo2GxReYmV7saF-124">
          <mxGeometry x="160" y="20" width="70" height="40" as="geometry" />
        </mxCell>
        <mxCell id="DjLfRaHo2GxReYmV7saF-109" value="option2" style="ellipse;whiteSpace=wrap;html=1;" vertex="1" parent="DjLfRaHo2GxReYmV7saF-124">
          <mxGeometry x="210" y="60" width="70" height="40" as="geometry" />
        </mxCell>
        <mxCell id="DjLfRaHo2GxReYmV7saF-110" value="queid" style="ellipse;whiteSpace=wrap;html=1;" vertex="1" parent="DjLfRaHo2GxReYmV7saF-124">
          <mxGeometry y="20" width="70" height="40" as="geometry" />
        </mxCell>
        <mxCell id="DjLfRaHo2GxReYmV7saF-111" value="" style="endArrow=none;html=1;rounded=0;entryX=0.5;entryY=1;entryDx=0;entryDy=0;" edge="1" parent="DjLfRaHo2GxReYmV7saF-124" source="DjLfRaHo2GxReYmV7saF-106" target="DjLfRaHo2GxReYmV7saF-110">
          <mxGeometry width="50" height="50" relative="1" as="geometry">
            <mxPoint x="400" y="180" as="sourcePoint" />
            <mxPoint x="50" y="60" as="targetPoint" />
          </mxGeometry>
        </mxCell>
        <mxCell id="DjLfRaHo2GxReYmV7saF-112" value="" style="endArrow=none;html=1;rounded=0;entryX=0.5;entryY=1;entryDx=0;entryDy=0;" edge="1" parent="DjLfRaHo2GxReYmV7saF-124" source="DjLfRaHo2GxReYmV7saF-106" target="DjLfRaHo2GxReYmV7saF-107">
          <mxGeometry width="50" height="50" relative="1" as="geometry">
            <mxPoint x="85" y="100" as="sourcePoint" />
            <mxPoint x="45" y="70" as="targetPoint" />
          </mxGeometry>
        </mxCell>
        <mxCell id="DjLfRaHo2GxReYmV7saF-113" value="" style="endArrow=none;html=1;rounded=0;entryX=0;entryY=1;entryDx=0;entryDy=0;exitX=0.75;exitY=0;exitDx=0;exitDy=0;" edge="1" parent="DjLfRaHo2GxReYmV7saF-124" source="DjLfRaHo2GxReYmV7saF-106" target="DjLfRaHo2GxReYmV7saF-108">
          <mxGeometry width="50" height="50" relative="1" as="geometry">
            <mxPoint x="125" y="100" as="sourcePoint" />
            <mxPoint x="125" y="50" as="targetPoint" />
          </mxGeometry>
        </mxCell>
        <mxCell id="DjLfRaHo2GxReYmV7saF-114" value="" style="endArrow=none;html=1;rounded=0;entryX=0;entryY=0.5;entryDx=0;entryDy=0;exitX=1;exitY=0.25;exitDx=0;exitDy=0;" edge="1" parent="DjLfRaHo2GxReYmV7saF-124" source="DjLfRaHo2GxReYmV7saF-106" target="DjLfRaHo2GxReYmV7saF-109">
          <mxGeometry width="50" height="50" relative="1" as="geometry">
            <mxPoint x="135" y="110" as="sourcePoint" />
            <mxPoint x="135" y="60" as="targetPoint" />
          </mxGeometry>
        </mxCell>
        <mxCell id="DjLfRaHo2GxReYmV7saF-117" value="option3" style="ellipse;whiteSpace=wrap;html=1;" vertex="1" parent="DjLfRaHo2GxReYmV7saF-124">
          <mxGeometry x="160" y="180" width="70" height="40" as="geometry" />
        </mxCell>
        <mxCell id="DjLfRaHo2GxReYmV7saF-119" value="correct&lt;br&gt;option" style="ellipse;whiteSpace=wrap;html=1;" vertex="1" parent="DjLfRaHo2GxReYmV7saF-124">
          <mxGeometry y="180" width="70" height="40" as="geometry" />
        </mxCell>
        <mxCell id="DjLfRaHo2GxReYmV7saF-120" value="" style="endArrow=none;html=1;rounded=0;entryX=0.25;entryY=1;entryDx=0;entryDy=0;" edge="1" parent="DjLfRaHo2GxReYmV7saF-124" source="DjLfRaHo2GxReYmV7saF-119" target="DjLfRaHo2GxReYmV7saF-106">
          <mxGeometry width="50" height="50" relative="1" as="geometry">
            <mxPoint x="-90" y="30" as="sourcePoint" />
            <mxPoint x="-40" y="-20" as="targetPoint" />
          </mxGeometry>
        </mxCell>
        <mxCell id="DjLfRaHo2GxReYmV7saF-121" value="" style="endArrow=none;html=1;rounded=0;entryX=0.5;entryY=1;entryDx=0;entryDy=0;exitX=0.5;exitY=0;exitDx=0;exitDy=0;" edge="1" parent="DjLfRaHo2GxReYmV7saF-124" source="DjLfRaHo2GxReYmV7saF-118" target="DjLfRaHo2GxReYmV7saF-106">
          <mxGeometry width="50" height="50" relative="1" as="geometry">
            <mxPoint x="62" y="193" as="sourcePoint" />
            <mxPoint x="95" y="160" as="targetPoint" />
          </mxGeometry>
        </mxCell>
        <mxCell id="DjLfRaHo2GxReYmV7saF-122" value="" style="endArrow=none;html=1;rounded=0;entryX=0.75;entryY=1;entryDx=0;entryDy=0;exitX=0.314;exitY=0.083;exitDx=0;exitDy=0;exitPerimeter=0;" edge="1" parent="DjLfRaHo2GxReYmV7saF-124" source="DjLfRaHo2GxReYmV7saF-117" target="DjLfRaHo2GxReYmV7saF-106">
          <mxGeometry width="50" height="50" relative="1" as="geometry">
            <mxPoint x="125" y="200" as="sourcePoint" />
            <mxPoint x="125" y="160" as="targetPoint" />
          </mxGeometry>
        </mxCell>
        <mxCell id="DjLfRaHo2GxReYmV7saF-118" value="option4" style="ellipse;whiteSpace=wrap;html=1;" vertex="1" parent="DjLfRaHo2GxReYmV7saF-124">
          <mxGeometry x="80" y="180" width="70" height="40" as="geometry" />
        </mxCell>
        <mxCell id="DjLfRaHo2GxReYmV7saF-131" style="edgeStyle=orthogonalEdgeStyle;rounded=0;orthogonalLoop=1;jettySize=auto;html=1;entryX=1;entryY=0.75;entryDx=0;entryDy=0;" edge="1" parent="DjLfRaHo2GxReYmV7saF-124">
          <mxGeometry relative="1" as="geometry">
            <mxPoint x="320" y="-77.5" as="sourcePoint" />
            <mxPoint x="175" y="117.5" as="targetPoint" />
            <Array as="points">
              <mxPoint x="340" y="-77.5" />
              <mxPoint x="340" y="117.5" />
            </Array>
          </mxGeometry>
        </mxCell>
        <mxCell id="DjLfRaHo2GxReYmV7saF-126" style="edgeStyle=orthogonalEdgeStyle;rounded=0;orthogonalLoop=1;jettySize=auto;html=1;entryX=0;entryY=0.5;entryDx=0;entryDy=0;" edge="1" parent="1" source="DjLfRaHo2GxReYmV7saF-125" target="DjLfRaHo2GxReYmV7saF-106">
          <mxGeometry relative="1" as="geometry" />
        </mxCell>
        <mxCell id="DjLfRaHo2GxReYmV7saF-127" style="edgeStyle=orthogonalEdgeStyle;rounded=0;orthogonalLoop=1;jettySize=auto;html=1;entryX=1;entryY=0.5;entryDx=0;entryDy=0;" edge="1" parent="1" source="DjLfRaHo2GxReYmV7saF-125" target="DjLfRaHo2GxReYmV7saF-95">
          <mxGeometry relative="1" as="geometry" />
        </mxCell>
        <mxCell id="DjLfRaHo2GxReYmV7saF-125" value="Has" style="rhombus;whiteSpace=wrap;html=1;" vertex="1" parent="1">
          <mxGeometry x="345" y="300" width="80" height="80" as="geometry" />
        </mxCell>
        <mxCell id="DjLfRaHo2GxReYmV7saF-130" style="edgeStyle=orthogonalEdgeStyle;rounded=0;orthogonalLoop=1;jettySize=auto;html=1;entryX=0.5;entryY=1;entryDx=0;entryDy=0;" edge="1" parent="1" source="DjLfRaHo2GxReYmV7saF-129" target="DjLfRaHo2GxReYmV7saF-79">
          <mxGeometry relative="1" as="geometry" />
        </mxCell>
        <mxCell id="DjLfRaHo2GxReYmV7saF-129" value="Has" style="rhombus;whiteSpace=wrap;html=1;" vertex="1" parent="1">
          <mxGeometry x="730" y="180" width="80" height="80" as="geometry" />
        </mxCell>
      </root>
    </mxGraphModel>
  </diagram>
</mxfile>
